<?xml version="1.0" encoding="utf-8"?>
<!-- Generator: Adobe Illustrator 26.3.1, SVG Export Plug-In . SVG Version: 6.00 Build 0)  -->
<svg version="1.1" id="Layer_1" xmlns="http://www.w3.org/2000/svg" xmlns:xlink="http://www.w3.org/1999/xlink" x="0px" y="0px"
	 viewBox="0 0 100 100" style="enable-background:new 0 0 100 100;" xml:space="preserve">
<style type="text/css">
	.st0{fill:#EA1E63;}
</style>
<g>
	<path class="st0" d="M26.6,40c2.5,0,4-1.7,4-3.7c0-2.2-1.5-3.8-4-3.8s-4,1.6-3.9,3.8C22.6,38.3,24.2,40,26.6,40z"/>
	<path class="st0" d="M56.2,32.5c-2.4,0-4,1.6-3.9,3.8c-0.1,2.1,1.5,3.7,3.9,3.7c2.5,0,4-1.7,4-3.7C60.1,34.1,58.6,32.5,56.2,32.5z"
		/>
	<path class="st0" d="M52.4,43h-6.7l-2.1,3.9c-0.6,1.2-1.2,2.4-1.9,3.7h-0.1c-0.6-1.1-1.3-2.3-2-3.6l-2.3-4h-7H29h-5.3
		c-0.3-2.8-1.6-5.2-3.5-6.7c-2.2-1.8-5.5-2.6-10.1-2.6c-4.5,0-7.8,0.3-10.1,0.7v32.6h7.4V55.1c0.7,0.1,1.6,0.1,2.6,0.1
		c4.4,0,8.2-1.1,10.7-3.5c1-0.9,1.7-2,2.2-3.2V67h5.9h1.5H37l2.3-4.3c0.6-1.2,1.2-2.3,1.8-3.6h0.1c0.6,1.2,1.2,2.4,1.9,3.6l2.4,4.3
		h7h1.5h6V43h-6.1H52.4z M9.9,49.5c-1.1,0-1.9-0.1-2.5-0.2v-9.7c0.5-0.1,1.6-0.3,3.1-0.3c3.7,0,5.8,1.8,5.8,4.8
		C16.3,47.5,13.9,49.5,9.9,49.5z M30.3,64.6V45l6.6,9.8L30.3,64.6z M45.9,54.4l6.5-9.4v19.7L45.9,54.4z"/>
	<path class="st0" d="M91.5,47.3c-4.3-1.6-6.1-2.6-6.1-4.7c0-1.7,1.6-3.2,4.8-3.2c3.2,0,5.6,0.9,6.9,1.6l1.6-6
		c-2-0.9-4.7-1.7-8.4-1.7c-6.9,0-11.3,3.4-12.3,8v-7.5h-7.5v20.8c0,5.1-2,6.6-5.1,6.6c-1.5,0-2.8-0.2-3.8-0.6l-0.8,6
		c1.5,0.5,3.7,0.8,5.4,0.8c7.3,0,11.8-3.3,11.8-12.7v-9.6c0.8,3.7,4.1,6.2,8.9,7.9c4,1.4,5.5,2.6,5.5,4.7c0,2.2-1.8,3.6-5.3,3.6
		c-3.2,0-6.3-1-8.3-2.1l-1.5,6.2c1.9,1,5.6,2,9.4,2c9.1,0,13.4-4.7,13.4-10.3C100.1,52.5,97.3,49.5,91.5,47.3L91.5,47.3z"/>
</g>
</svg>
