<?xml version="1.0" encoding="utf-8"?>
<!-- Generator: Adobe Illustrator 26.3.1, SVG Export Plug-In . SVG Version: 6.00 Build 0)  -->
<svg version="1.1" id="Layer_1" xmlns="http://www.w3.org/2000/svg" xmlns:xlink="http://www.w3.org/1999/xlink" x="0px" y="0px"
	 viewBox="0 0 100 100" style="enable-background:new 0 0 100 100;" xml:space="preserve">
<style type="text/css">
	.st0{fill:#007ACC;}
	.st1{fill:#FFFFFF;}
</style>
<path class="st0" d="M0,50V0h100v100H0"/>
<path class="st1" d="M21.9,50.2v4.1h13v37h9.2v-37h13v-4c0-2.2,0-4.1-0.1-4.1c0-0.1-7.9-0.1-17.5-0.1L22,46.1L21.9,50.2L21.9,50.2
	L21.9,50.2z M80.3,46c2.6,0.6,4.5,1.8,6.2,3.6c0.9,1,2.3,2.8,2.4,3.2c0,0.2-4.3,3.1-6.9,4.7c-0.1,0.1-0.5-0.3-0.9-1
	c-1.3-1.8-2.6-2.7-4.7-2.8c-3-0.2-5,1.4-5,4c0,0.8,0.2,1.2,0.4,1.9c0.7,1.4,1.9,2.2,5.8,3.9c7.2,3.1,10.2,5.1,12.1,8
	c2.1,3.2,2.6,8.3,1.2,12.2c-1.6,4.2-5.5,7-11.1,7.9c-1.8,0.3-5.8,0.2-7.6-0.1c-4-0.8-7.8-2.8-10.2-5.3c-0.9-1-2.7-3.7-2.6-3.8l1-0.6
	l3.8-2.2l2.8-1.7l0.7,0.9c0.8,1.3,2.7,3.1,3.8,3.7c3.2,1.7,7.6,1.4,9.8-0.5c0.9-0.8,1.3-1.8,1.3-3c0-1.2-0.2-1.7-0.8-2.6
	c-0.8-1.1-2.4-2-6.9-4c-5.2-2.2-7.4-3.6-9.4-5.8c-1.2-1.3-2.2-3.3-2.8-5c-0.4-1.5-0.5-5-0.2-6.4c1.1-5,4.8-8.5,10.2-9.5
	C74.6,45.4,78.7,45.5,80.3,46L80.3,46L80.3,46z"/>
</svg>
