<?xml version="1.0" encoding="utf-8"?>
<svg version="1.1" id="Layer_1" xmlns="http://www.w3.org/2000/svg" xmlns:xlink="http://www.w3.org/1999/xlink" x="0px" y="0px"
	 width="100px" height="100px"
	 viewBox="0 0 100 100" style="enable-background:new 0 0 100 100;" xml:space="preserve">
<style type="text/css">
	.st0{fill:url(#SVGID_1_);}
	.st1{fill:url(#SVGID_00000067930741459323610050000008012697500213034666_);}
</style>
<g>
	
		<linearGradient id="SVGID_1_" gradientUnits="userSpaceOnUse" x1="25.0019" y1="416.9349" x2="83.3925" y2="337.6358" gradientTransform="matrix(1 0 0 -1 0 406)">
		<stop  offset="0" style="stop-color:#41D1FF"/>
		<stop  offset="1" style="stop-color:#BD34FE"/>
	</linearGradient>
	<path class="st0" d="M99.6,14.8L52.7,98.7c-1,1.7-3.5,1.7-4.4,0L0.4,14.8c-1.1-1.9,0.5-4.2,2.7-3.8l47,8.4c0.3,0.1,0.6,0.1,0.9,0
		l46-8.4C99,10.7,100.7,12.9,99.6,14.8z"/>
	
		<linearGradient id="SVGID_00000151512354937862104140000009701448195049097882_" gradientUnits="userSpaceOnUse" x1="52.5361" y1="404.8861" x2="63.0987" y2="332.4279" gradientTransform="matrix(1 0 0 -1 0 406)">
		<stop  offset="0" style="stop-color:#FFEA83"/>
		<stop  offset="8.333330e-02" style="stop-color:#FFDD35"/>
		<stop  offset="1" style="stop-color:#FFA800"/>
	</linearGradient>
	<path style="fill:url(#SVGID_00000151512354937862104140000009701448195049097882_);" d="M72.4,0L37.7,6.8c-0.6,0.1-1,0.6-1,1.2
		l-2.1,36.1c-0.1,0.8,0.7,1.5,1.6,1.3l9.7-2.2c0.9-0.2,1.7,0.6,1.5,1.5l-2.9,14.1c-0.2,0.9,0.7,1.8,1.6,1.5l6-1.8
		c0.9-0.3,1.8,0.5,1.6,1.5L49.1,82c-0.3,1.4,1.6,2.1,2.3,1l0.5-0.8l28.3-56.5c0.5-0.9-0.3-2-1.4-1.8l-9.9,1.9
		c-0.9,0.2-1.7-0.7-1.5-1.6l6.5-22.5C74.1,0.7,73.3-0.2,72.4,0z"/>
</g>
</svg>
