<?xml version="1.0" encoding="UTF-8" standalone="no"?>
<svg
   xmlns:dc="http://purl.org/dc/elements/1.1/"
   xmlns:cc="http://creativecommons.org/ns#"
   xmlns:rdf="http://www.w3.org/1999/02/22-rdf-syntax-ns#"
   xmlns:svg="http://www.w3.org/2000/svg"
   xmlns="http://www.w3.org/2000/svg"
   xmlns:sodipodi="http://sodipodi.sourceforge.net/DTD/sodipodi-0.dtd"
   xmlns:inkscape="http://www.inkscape.org/namespaces/inkscape"
   width="205.24413"
   height="231.18359"
   fill="none"
   version="1.1"
   id="svg20"
   sodipodi:docname="tauri_icon.svg"
   inkscape:version="1.0.1 (c497b03c, 2020-09-10)">
  <metadata
     id="metadata26">
    <rdf:RDF>
      <cc:Work
         rdf:about="">
        <dc:format>image/svg+xml</dc:format>
        <dc:type
           rdf:resource="http://purl.org/dc/dcmitype/StillImage" />
        <dc:title></dc:title>
      </cc:Work>
    </rdf:RDF>
  </metadata>
  <defs
     id="defs24" />
  <sodipodi:namedview
     pagecolor="#ffffff"
     bordercolor="#666666"
     borderopacity="1"
     objecttolerance="10"
     gridtolerance="10"
     guidetolerance="10"
     inkscape:pageopacity="0"
     inkscape:pageshadow="2"
     inkscape:window-width="1906"
     inkscape:window-height="1240"
     id="namedview22"
     showgrid="false"
     fit-margin-top="0"
     fit-margin-left="0"
     fit-margin-right="0"
     fit-margin-bottom="0"
     inkscape:zoom="1.4764468"
     inkscape:cx="371.50954"
     inkscape:cy="115.63212"
     inkscape:window-x="2498"
     inkscape:window-y="326"
     inkscape:window-maximized="0"
     inkscape:current-layer="svg20" />
  <path
     d="m 143.10954,84.132117 a 22,22 0 1 1 -43.999996,0 22,22 0 0 1 43.999996,0 z"
     fill="#ffc131"
     id="path12" />
  <circle
     cx="-84.109543"
     cy="-147.13211"
     transform="scale(-1)"
     fill="#24c8db"
     r="22"
     id="circle14" />
  <path
     fill-rule="evenodd"
     clip-rule="evenodd"
     d="m 166.70954,154.63212 a 84,84 0 0 1 -29,11.8 59,59 0 0 0 2.9,-26.6 59,59 0 1 0 -67.399996,-90.100003 98,98 0 0 0 -32.2,9.4 84,84 0 1 1 125.699996,95.500003 z M 42.009544,74.432117 l 20.6,2.5 a 59,59 0 0 1 2.6,-11.7 84,84 0 0 0 -23.2,9.2 z"
     fill="#ffc131"
     id="path16" />
  <path
     fill-rule="evenodd"
     clip-rule="evenodd"
     d="m 38.409544,76.632117 a 84,84 0 0 1 29.2,-11.9 58.9,58.9 0 0 0 -3.3,26.7 59,59 0 1 0 67.699996,90.000003 98,98 0 0 0 32.2,-9.3 A 84,84 0 1 1 38.409544,76.632117 Z m 124.699996,80.200003 -0.4,0.2 z"
     fill="#24c8db"
     id="path18" />
</svg>
